<svg width="16" height="18" viewBox="0 0 16 18" fill="none" xmlns="http://www.w3.org/2000/svg">
<path d="M11.248 11.5469C11.7207 11.293 12.2617 11.1484 12.8379 11.1484H12.8398C12.8984 11.1484 12.9258 11.0781 12.8828 11.0391C12.2836 10.5013 11.5992 10.067 10.8574 9.75391C10.8496 9.75 10.8418 9.74805 10.834 9.74414C12.0469 8.86328 12.8359 7.43164 12.8359 5.81641C12.8359 3.14062 10.6719 0.972656 8.00196 0.972656C5.33203 0.972656 3.16993 3.14062 3.16993 5.81641C3.16993 7.43164 3.95899 8.86328 5.17383 9.74414C5.16602 9.74805 5.15821 9.75 5.15039 9.75391C4.27735 10.123 3.49414 10.6523 2.82032 11.3281C2.15038 11.9968 1.61702 12.7896 1.25 13.6621C0.888896 14.5165 0.69401 15.432 0.675784 16.3594C0.675263 16.3802 0.678919 16.401 0.686538 16.4204C0.694156 16.4398 0.705583 16.4575 0.720144 16.4724C0.734706 16.4873 0.752107 16.4992 0.771324 16.5073C0.79054 16.5154 0.811182 16.5195 0.832034 16.5195H2.00196C2.08594 16.5195 2.15625 16.4512 2.15821 16.3672C2.19727 14.8594 2.80078 13.4473 3.86914 12.377C4.97266 11.2695 6.44141 10.6602 8.00391 10.6602C9.11133 10.6602 10.1738 10.9668 11.0898 11.541C11.1134 11.5558 11.1404 11.5641 11.1682 11.5652C11.1959 11.5662 11.2235 11.5599 11.248 11.5469ZM8.00391 9.17578C7.10938 9.17578 6.26758 8.82617 5.63282 8.19141C5.3205 7.8799 5.07291 7.50968 4.9043 7.10207C4.73569 6.69446 4.6494 6.25751 4.65039 5.81641C4.65039 4.91992 5 4.07617 5.63282 3.44141C6.26563 2.80664 7.10743 2.45703 8.00391 2.45703C8.90039 2.45703 9.74024 2.80664 10.375 3.44141C10.6873 3.75291 10.9349 4.12313 11.1035 4.53074C11.2721 4.93836 11.3584 5.3753 11.3574 5.81641C11.3574 6.71289 11.0078 7.55664 10.375 8.19141C9.74024 8.82617 8.89844 9.17578 8.00391 9.17578ZM15.1875 13.8242H13.5469V12.1836C13.5469 12.0977 13.4766 12.0273 13.3906 12.0273H12.2969C12.2109 12.0273 12.1406 12.0977 12.1406 12.1836V13.8242H10.5C10.4141 13.8242 10.3438 13.8945 10.3438 13.9805V15.0742C10.3438 15.1602 10.4141 15.2305 10.5 15.2305H12.1406V16.8711C12.1406 16.957 12.2109 17.0273 12.2969 17.0273H13.3906C13.4766 17.0273 13.5469 16.957 13.5469 16.8711V15.2305H15.1875C15.2734 15.2305 15.3438 15.1602 15.3438 15.0742V13.9805C15.3438 13.8945 15.2734 13.8242 15.1875 13.8242Z" fill="black" fill-opacity="0.66"/>
</svg>
